<svg width="100" height="72" viewBox="0 0 100 72" fill="none" xmlns="http://www.w3.org/2000/svg">
<path d="M27.8 72C18.9333 72 12.3 69.5333 7.9 64.6C3.56667 59.6667 1.2 53.2 0.8 45.2C0.733334 43.4 0.7 40.3333 0.7 36C0.7 31.6 0.733334 28.4667 0.8 26.6C1.13333 18.7333 3.53333 12.3333 8 7.4C12.4667 2.46666 19.0667 -3.8147e-06 27.8 -3.8147e-06C36.6 -3.8147e-06 43.2333 2.46666 47.7 7.4C52.1667 12.3333 54.5333 18.7333 54.8 26.6C54.9333 28.4667 55 31.6 55 36C55 40.3333 54.9333 43.4 54.8 45.2C54.4667 53.2 52.1 59.6667 47.7 64.6C43.3667 69.5333 36.7333 72 27.8 72ZM27.8 60.5C32 60.5 35.1333 59.1333 37.2 56.4C39.2667 53.6 40.3667 49.7 40.5 44.7C40.6333 40.8333 40.7 37.9 40.7 35.9C40.7 33.7 40.6333 30.8 40.5 27.2C40.3667 22.2667 39.2667 18.4 37.2 15.6C35.1333 12.8 32 11.4 27.8 11.4C23.6667 11.4 20.5333 12.8 18.4 15.6C16.3333 18.4 15.2333 22.2667 15.1 27.2C15.0333 29 15 31.9 15 35.9C15 39.8333 15.0333 42.7667 15.1 44.7C15.2333 49.7 16.3333 53.6 18.4 56.4C20.5333 59.1333 23.6667 60.5 27.8 60.5ZM88.4227 71C87.756 71 87.1893 70.7667 86.7227 70.3C86.256 69.8333 86.0227 69.2667 86.0227 68.6V16.8L70.8227 28.5C70.4227 28.8333 69.956 29 69.4227 29C68.6227 29 67.956 28.6333 67.4227 27.9L63.2227 22.5C62.8893 21.9667 62.7227 21.4667 62.7227 21C62.7227 20.2 63.0893 19.5333 63.8227 19L86.2227 1.7C86.8227 1.23333 87.656 0.999995 88.7227 0.999995H97.5227C98.256 0.999995 98.8227 1.23333 99.2227 1.7C99.6893 2.1 99.9227 2.66666 99.9227 3.39999V68.6C99.9227 69.2667 99.6893 69.8333 99.2227 70.3C98.8227 70.7667 98.256 71 97.5227 71H88.4227Z" fill="#FA8669" fill-opacity="0.5"/>
</svg>
