<svg width="118" height="73" viewBox="0 0 118 73" fill="none" xmlns="http://www.w3.org/2000/svg">
<path d="M27.8 73C18.9333 73 12.3 70.5333 7.9 65.6C3.56667 60.6667 1.2 54.2 0.8 46.2C0.733334 44.4 0.7 41.3333 0.7 37C0.7 32.6 0.733334 29.4667 0.8 27.6C1.13333 19.7333 3.53333 13.3333 8 8.4C12.4667 3.46666 19.0667 0.999996 27.8 0.999996C36.6 0.999996 43.2333 3.46666 47.7 8.4C52.1667 13.3333 54.5333 19.7333 54.8 27.6C54.9333 29.4667 55 32.6 55 37C55 41.3333 54.9333 44.4 54.8 46.2C54.4667 54.2 52.1 60.6667 47.7 65.6C43.3667 70.5333 36.7333 73 27.8 73ZM27.8 61.5C32 61.5 35.1333 60.1333 37.2 57.4C39.2667 54.6 40.3667 50.7 40.5 45.7C40.6333 41.8333 40.7 38.9 40.7 36.9C40.7 34.7 40.6333 31.8 40.5 28.2C40.3667 23.2667 39.2667 19.4 37.2 16.6C35.1333 13.8 32 12.4 27.8 12.4C23.6667 12.4 20.5333 13.8 18.4 16.6C16.3333 19.4 15.2333 23.2667 15.1 28.2C15.0333 30 15 32.9 15 36.9C15 40.8333 15.0333 43.7667 15.1 45.7C15.2333 50.7 16.3333 54.6 18.4 57.4C20.5333 60.1333 23.6667 61.5 27.8 61.5ZM67.6227 72C66.956 72 66.3893 71.7667 65.9227 71.3C65.456 70.8333 65.2227 70.2667 65.2227 69.6V64.5C65.2227 62.7 66.056 61.1333 67.7227 59.8L83.5227 44.1C90.3893 38.7 95.156 34.5 97.8227 31.5C100.556 28.4333 101.923 25.4333 101.923 22.5C101.923 19.3667 101.056 16.9 99.3227 15.1C97.656 13.3 95.1227 12.4 91.7227 12.4C88.3893 12.4 85.756 13.4 83.8227 15.4C81.8893 17.3333 80.6893 19.8667 80.2227 23C80.0227 23.8 79.656 24.4 79.1227 24.8C78.5893 25.1333 77.9893 25.3 77.3227 25.3H68.4227C67.8227 25.3 67.3227 25.1 66.9227 24.7C66.5227 24.3 66.3227 23.8333 66.3227 23.3C66.456 19.3667 67.5227 15.7 69.5227 12.3C71.5227 8.83333 74.4227 6.06666 78.2227 4C82.0227 1.86667 86.4893 0.799999 91.6227 0.799999C96.956 0.799999 101.456 1.73333 105.123 3.6C108.856 5.4 111.656 7.9 113.523 11.1C115.389 14.3 116.323 17.9333 116.323 22C116.323 26.4667 115.056 30.5 112.523 34.1C110.056 37.7 106.256 41.5667 101.123 45.7L86.9227 60.1H115.423C116.156 60.1 116.723 60.3333 117.123 60.8C117.589 61.2 117.823 61.7667 117.823 62.5V69.6C117.823 70.2667 117.589 70.8333 117.123 71.3C116.723 71.7667 116.156 72 115.423 72H67.6227Z" fill="#FA8669" fill-opacity="0.5"/>
</svg>
