<svg width="120" height="72" viewBox="0 0 120 72" fill="none" xmlns="http://www.w3.org/2000/svg">
<path d="M27.8 72C18.9333 72 12.3 69.5333 7.9 64.6C3.56667 59.6667 1.2 53.2 0.8 45.2C0.733334 43.4 0.7 40.3333 0.7 36C0.7 31.6 0.733334 28.4667 0.8 26.6C1.13333 18.7333 3.53333 12.3333 8 7.4C12.4667 2.46666 19.0667 -3.8147e-06 27.8 -3.8147e-06C36.6 -3.8147e-06 43.2333 2.46666 47.7 7.4C52.1667 12.3333 54.5333 18.7333 54.8 26.6C54.9333 28.4667 55 31.6 55 36C55 40.3333 54.9333 43.4 54.8 45.2C54.4667 53.2 52.1 59.6667 47.7 64.6C43.3667 69.5333 36.7333 72 27.8 72ZM27.8 60.5C32 60.5 35.1333 59.1333 37.2 56.4C39.2667 53.6 40.3667 49.7 40.5 44.7C40.6333 40.8333 40.7 37.9 40.7 35.9C40.7 33.7 40.6333 30.8 40.5 27.2C40.3667 22.2667 39.2667 18.4 37.2 15.6C35.1333 12.8 32 11.4 27.8 11.4C23.6667 11.4 20.5333 12.8 18.4 15.6C16.3333 18.4 15.2333 22.2667 15.1 27.2C15.0333 29 15 31.9 15 35.9C15 39.8333 15.0333 42.7667 15.1 44.7C15.2333 49.7 16.3333 53.6 18.4 56.4C20.5333 59.1333 23.6667 60.5 27.8 60.5ZM91.8227 72C85.956 72 80.956 71.0667 76.8227 69.2C72.756 67.3333 69.6893 65 67.6227 62.2C65.6227 59.3333 64.556 56.4 64.4227 53.4C64.4227 52.8 64.6227 52.3333 65.0227 52C65.4893 51.6 66.0227 51.4 66.6227 51.4H75.6227C77.0893 51.4 78.056 52.0667 78.5227 53.4C79.9893 58.2 84.456 60.6 91.9227 60.6C95.9893 60.6 99.1893 59.6667 101.523 57.8C103.856 55.8667 105.023 53.1333 105.023 49.6C105.023 42.9333 100.856 39.6 92.5227 39.6H82.2227C81.4893 39.6 80.8893 39.3667 80.4227 38.9C79.956 38.4333 79.7227 37.8667 79.7227 37.2V33C79.7227 31.9333 80.1893 30.9333 81.1227 30L99.0227 12.5H70.4227C69.756 12.5 69.1893 12.2667 68.7227 11.8C68.256 11.3333 68.0227 10.7667 68.0227 10.1V3.5C68.0227 2.76666 68.2227 2.16666 68.6227 1.7C69.0893 1.23333 69.6893 0.999995 70.4227 0.999995H113.323C114.056 0.999995 114.656 1.23333 115.123 1.7C115.589 2.16666 115.823 2.76666 115.823 3.5V9.5C115.823 10.5 115.389 11.4333 114.523 12.3L97.2227 30.1L98.4227 30.2C104.823 30.7333 109.889 32.6667 113.623 36C117.423 39.3333 119.323 44.1 119.323 50.3C119.323 54.7 118.123 58.5333 115.723 61.8C113.389 65.0667 110.123 67.6 105.923 69.4C101.789 71.1333 97.0893 72 91.8227 72Z" fill="#FA8669" fill-opacity="0.5"/>
</svg>
