<svg width="123" height="72" viewBox="0 0 123 72" fill="none" xmlns="http://www.w3.org/2000/svg">
<path d="M27.8 72C18.9333 72 12.3 69.5333 7.9 64.6C3.56667 59.6667 1.2 53.2 0.8 45.2C0.733334 43.4 0.7 40.3333 0.7 36C0.7 31.6 0.733334 28.4667 0.8 26.6C1.13333 18.7333 3.53333 12.3333 8 7.4C12.4667 2.46666 19.0667 -3.8147e-06 27.8 -3.8147e-06C36.6 -3.8147e-06 43.2333 2.46666 47.7 7.4C52.1667 12.3333 54.5333 18.7333 54.8 26.6C54.9333 28.4667 55 31.6 55 36C55 40.3333 54.9333 43.4 54.8 45.2C54.4667 53.2 52.1 59.6667 47.7 64.6C43.3667 69.5333 36.7333 72 27.8 72ZM27.8 60.5C32 60.5 35.1333 59.1333 37.2 56.4C39.2667 53.6 40.3667 49.7 40.5 44.7C40.6333 40.8333 40.7 37.9 40.7 35.9C40.7 33.7 40.6333 30.8 40.5 27.2C40.3667 22.2667 39.2667 18.4 37.2 15.6C35.1333 12.8 32 11.4 27.8 11.4C23.6667 11.4 20.5333 12.8 18.4 15.6C16.3333 18.4 15.2333 22.2667 15.1 27.2C15.0333 29 15 31.9 15 35.9C15 39.8333 15.0333 42.7667 15.1 44.7C15.2333 49.7 16.3333 53.6 18.4 56.4C20.5333 59.1333 23.6667 60.5 27.8 60.5ZM100.223 71C99.556 71 98.9893 70.7667 98.5227 70.3C98.056 69.8333 97.8227 69.2667 97.8227 68.6V55.8H66.1227C65.456 55.8 64.8893 55.5667 64.4227 55.1C63.956 54.6333 63.7227 54.0667 63.7227 53.4V46.6C63.7227 45.5333 64.0893 44.5333 64.8227 43.6L94.3227 2.7C94.656 2.16666 95.156 1.76666 95.8227 1.49999C96.4893 1.16666 97.2227 0.999995 98.0227 0.999995H108.923C109.656 0.999995 110.223 1.23333 110.623 1.7C111.089 2.1 111.323 2.66666 111.323 3.39999V44H120.223C120.956 44 121.556 44.2333 122.023 44.7C122.489 45.1 122.723 45.6667 122.723 46.4V53.4C122.723 54.0667 122.489 54.6333 122.023 55.1C121.556 55.5667 120.989 55.8 120.323 55.8H111.323V68.6C111.323 69.2667 111.089 69.8333 110.623 70.3C110.223 70.7667 109.656 71 108.923 71H100.223ZM98.1227 44.4V15.5L77.6227 44.4H98.1227Z" fill="#FA8669" fill-opacity="0.5"/>
</svg>
