<svg width="119" height="73" viewBox="0 0 119 73" fill="none" xmlns="http://www.w3.org/2000/svg">
<path d="M27.8 72C18.9333 72 12.3 69.5333 7.9 64.6C3.56667 59.6667 1.2 53.2 0.8 45.2C0.733334 43.4 0.7 40.3333 0.7 36C0.7 31.6 0.733334 28.4667 0.8 26.6C1.13333 18.7333 3.53333 12.3333 8 7.4C12.4667 2.46666 19.0667 -3.8147e-06 27.8 -3.8147e-06C36.6 -3.8147e-06 43.2333 2.46666 47.7 7.4C52.1667 12.3333 54.5333 18.7333 54.8 26.6C54.9333 28.4667 55 31.6 55 36C55 40.3333 54.9333 43.4 54.8 45.2C54.4667 53.2 52.1 59.6667 47.7 64.6C43.3667 69.5333 36.7333 72 27.8 72ZM27.8 60.5C32 60.5 35.1333 59.1333 37.2 56.4C39.2667 53.6 40.3667 49.7 40.5 44.7C40.6333 40.8333 40.7 37.9 40.7 35.9C40.7 33.7 40.6333 30.8 40.5 27.2C40.3667 22.2667 39.2667 18.4 37.2 15.6C35.1333 12.8 32 11.4 27.8 11.4C23.6667 11.4 20.5333 12.8 18.4 15.6C16.3333 18.4 15.2333 22.2667 15.1 27.2C15.0333 29 15 31.9 15 35.9C15 39.8333 15.0333 42.7667 15.1 44.7C15.2333 49.7 16.3333 53.6 18.4 56.4C20.5333 59.1333 23.6667 60.5 27.8 60.5ZM91.3227 72.1C85.7893 72.1 81.0227 71.1667 77.0227 69.3C73.0893 67.4333 70.056 64.9667 67.9227 61.9C65.856 58.8333 64.756 55.5333 64.6227 52V51.8C64.6227 51.2667 64.8227 50.8333 65.2227 50.5C65.6227 50.1667 66.1227 50 66.7227 50H76.0227C77.556 50 78.556 50.6667 79.0227 52C79.956 54.9333 81.4893 57.1 83.6227 58.5C85.8227 59.9 88.3893 60.6 91.3227 60.6C95.056 60.6 98.156 59.4667 100.623 57.2C103.156 54.9333 104.423 51.7667 104.423 47.7C104.423 44.1 103.156 41.1667 100.623 38.9C98.156 36.6333 95.056 35.5 91.3227 35.5C89.3227 35.5 87.6893 35.7667 86.4227 36.3C85.156 36.8333 83.9227 37.5667 82.7227 38.5C81.9227 39.1 81.2893 39.5333 80.8227 39.8C80.4227 40 79.9227 40.1 79.3227 40.1H70.1227C69.5227 40.1 68.9893 39.9 68.5227 39.5C68.1227 39.0333 67.9227 38.5 67.9227 37.9L71.4227 3.7C71.4893 2.89999 71.756 2.26666 72.2227 1.8C72.756 1.26666 73.4227 0.999995 74.2227 0.999995H111.823C112.489 0.999995 113.056 1.23333 113.523 1.7C113.989 2.16666 114.223 2.73333 114.223 3.39999V10.1C114.223 10.7667 113.989 11.3333 113.523 11.8C113.056 12.2667 112.489 12.5 111.823 12.5H82.9227L81.3227 28.8C84.5893 26.5333 88.956 25.4 94.4227 25.4C98.756 25.4 102.756 26.3333 106.423 28.2C110.156 30 113.123 32.6333 115.323 36.1C117.523 39.5 118.623 43.4667 118.623 48C118.623 52.8667 117.489 57.1333 115.223 60.8C112.956 64.4 109.756 67.2 105.623 69.2C101.556 71.1333 96.7893 72.1 91.3227 72.1Z" fill="#FA8669" fill-opacity="0.5"/>
</svg>
