<svg width="121" height="72" viewBox="0 0 121 72" fill="none" xmlns="http://www.w3.org/2000/svg">
<path d="M27.8 72C18.9333 72 12.3 69.5333 7.9 64.6C3.56667 59.6667 1.2 53.2 0.8 45.2C0.733334 43.4 0.7 40.3333 0.7 36C0.7 31.6 0.733334 28.4667 0.8 26.6C1.13333 18.7333 3.53333 12.3333 8 7.4C12.4667 2.46666 19.0667 -3.8147e-06 27.8 -3.8147e-06C36.6 -3.8147e-06 43.2333 2.46666 47.7 7.4C52.1667 12.3333 54.5333 18.7333 54.8 26.6C54.9333 28.4667 55 31.6 55 36C55 40.3333 54.9333 43.4 54.8 45.2C54.4667 53.2 52.1 59.6667 47.7 64.6C43.3667 69.5333 36.7333 72 27.8 72ZM27.8 60.5C32 60.5 35.1333 59.1333 37.2 56.4C39.2667 53.6 40.3667 49.7 40.5 44.7C40.6333 40.8333 40.7 37.9 40.7 35.9C40.7 33.7 40.6333 30.8 40.5 27.2C40.3667 22.2667 39.2667 18.4 37.2 15.6C35.1333 12.8 32 11.4 27.8 11.4C23.6667 11.4 20.5333 12.8 18.4 15.6C16.3333 18.4 15.2333 22.2667 15.1 27.2C15.0333 29 15 31.9 15 35.9C15 39.8333 15.0333 42.7667 15.1 44.7C15.2333 49.7 16.3333 53.6 18.4 56.4C20.5333 59.1333 23.6667 60.5 27.8 60.5ZM92.6227 72C87.0227 72 82.1227 70.9333 77.9227 68.8C73.7227 66.6667 70.4893 63.7667 68.2227 60.1C65.956 56.3667 64.8227 52.1667 64.8227 47.5C64.8227 41.5667 67.3893 35.1 72.5227 28.1L90.8227 3C91.2227 2.4 91.656 1.93333 92.1227 1.6C92.656 1.2 93.356 0.999995 94.2227 0.999995H103.523C104.123 0.999995 104.623 1.23333 105.023 1.7C105.423 2.1 105.623 2.6 105.623 3.2C105.623 3.53333 105.456 3.96666 105.123 4.5L91.1227 23.9C92.456 23.5667 93.8893 23.4 95.4227 23.4C99.8893 23.5333 103.989 24.6667 107.723 26.8C111.523 28.8667 114.523 31.7 116.723 35.3C118.989 38.9 120.123 42.9 120.123 47.3C120.123 51.7667 118.989 55.9 116.723 59.7C114.523 63.4333 111.323 66.4333 107.123 68.7C102.989 70.9 98.156 72 92.6227 72ZM92.5227 60.5C96.3227 60.5 99.5227 59.3667 102.123 57.1C104.723 54.7667 106.023 51.5333 106.023 47.4C106.023 43.3333 104.723 40.1667 102.123 37.9C99.5227 35.5667 96.3227 34.4 92.5227 34.4C88.7227 34.4 85.5227 35.5667 82.9227 37.9C80.3227 40.1667 79.0227 43.3333 79.0227 47.4C79.0227 51.5333 80.3227 54.7667 82.9227 57.1C85.5227 59.3667 88.7227 60.5 92.5227 60.5Z" fill="#FA8669" fill-opacity="0.5"/>
</svg>
