<svg width="113" height="72" viewBox="0 0 113 72" fill="none" xmlns="http://www.w3.org/2000/svg">
<path d="M27.8 72C18.9333 72 12.3 69.5333 7.9 64.6C3.56667 59.6667 1.2 53.2 0.8 45.2C0.733334 43.4 0.7 40.3333 0.7 36C0.7 31.6 0.733334 28.4667 0.8 26.6C1.13333 18.7333 3.53333 12.3333 8 7.4C12.4667 2.46666 19.0667 -3.8147e-06 27.8 -3.8147e-06C36.6 -3.8147e-06 43.2333 2.46666 47.7 7.4C52.1667 12.3333 54.5333 18.7333 54.8 26.6C54.9333 28.4667 55 31.6 55 36C55 40.3333 54.9333 43.4 54.8 45.2C54.4667 53.2 52.1 59.6667 47.7 64.6C43.3667 69.5333 36.7333 72 27.8 72ZM27.8 60.5C32 60.5 35.1333 59.1333 37.2 56.4C39.2667 53.6 40.3667 49.7 40.5 44.7C40.6333 40.8333 40.7 37.9 40.7 35.9C40.7 33.7 40.6333 30.8 40.5 27.2C40.3667 22.2667 39.2667 18.4 37.2 15.6C35.1333 12.8 32 11.4 27.8 11.4C23.6667 11.4 20.5333 12.8 18.4 15.6C16.3333 18.4 15.2333 22.2667 15.1 27.2C15.0333 29 15 31.9 15 35.9C15 39.8333 15.0333 42.7667 15.1 44.7C15.2333 49.7 16.3333 53.6 18.4 56.4C20.5333 59.1333 23.6667 60.5 27.8 60.5ZM75.2227 71C74.6227 71 74.1227 70.8 73.7227 70.4C73.3227 69.9333 73.1227 69.4 73.1227 68.8C73.1227 68.6 73.1893 68.3 73.3227 67.9L97.4227 12.9H66.0227C65.356 12.9 64.7893 12.6667 64.3227 12.2C63.856 11.7333 63.6227 11.1667 63.6227 10.5V3.5C63.6227 2.76666 63.8227 2.16666 64.2227 1.7C64.6893 1.23333 65.2893 0.999995 66.0227 0.999995H109.923C110.656 0.999995 111.223 1.23333 111.623 1.7C112.089 2.16666 112.323 2.76666 112.323 3.5V9.7C112.323 11.0333 112.023 12.4667 111.423 14L87.5227 68.6C86.7893 70.2 85.7227 71 84.3227 71H75.2227Z" fill="#FA8669" fill-opacity="0.5"/>
</svg>
