<svg width="122" height="72" viewBox="0 0 122 72" fill="none" xmlns="http://www.w3.org/2000/svg">
<path d="M27.8 72C18.9333 72 12.3 69.5333 7.9 64.6C3.56667 59.6667 1.2 53.2 0.8 45.2C0.733334 43.4 0.7 40.3333 0.7 36C0.7 31.6 0.733334 28.4667 0.8 26.6C1.13333 18.7333 3.53333 12.3333 8 7.4C12.4667 2.46666 19.0667 -3.8147e-06 27.8 -3.8147e-06C36.6 -3.8147e-06 43.2333 2.46666 47.7 7.4C52.1667 12.3333 54.5333 18.7333 54.8 26.6C54.9333 28.4667 55 31.6 55 36C55 40.3333 54.9333 43.4 54.8 45.2C54.4667 53.2 52.1 59.6667 47.7 64.6C43.3667 69.5333 36.7333 72 27.8 72ZM27.8 60.5C32 60.5 35.1333 59.1333 37.2 56.4C39.2667 53.6 40.3667 49.7 40.5 44.7C40.6333 40.8333 40.7 37.9 40.7 35.9C40.7 33.7 40.6333 30.8 40.5 27.2C40.3667 22.2667 39.2667 18.4 37.2 15.6C35.1333 12.8 32 11.4 27.8 11.4C23.6667 11.4 20.5333 12.8 18.4 15.6C16.3333 18.4 15.2333 22.2667 15.1 27.2C15.0333 29 15 31.9 15 35.9C15 39.8333 15.0333 42.7667 15.1 44.7C15.2333 49.7 16.3333 53.6 18.4 56.4C20.5333 59.1333 23.6667 60.5 27.8 60.5ZM93.5227 72C87.7227 72 82.7227 71.1 78.5227 69.3C74.3893 67.4333 71.2227 64.8667 69.0227 61.6C66.8227 58.3333 65.7227 54.6 65.7227 50.4C65.7227 46.6667 66.656 43.3667 68.5227 40.5C70.3893 37.5667 72.8893 35.3333 76.0227 33.8C73.556 32.2667 71.6227 30.3 70.2227 27.9C68.8893 25.4333 68.2227 22.6333 68.2227 19.5C68.2227 13.6333 70.4227 8.93333 74.8227 5.4C79.2893 1.8 85.5227 -3.8147e-06 93.5227 -3.8147e-06C101.456 -3.8147e-06 107.623 1.76666 112.023 5.3C116.423 8.83333 118.623 13.5333 118.623 19.4C118.623 22.5333 117.956 25.3333 116.623 27.8C115.356 30.2 113.489 32.2 111.023 33.8C114.223 35.3333 116.723 37.5667 118.523 40.5C120.389 43.3667 121.323 46.7 121.323 50.5C121.323 54.7 120.223 58.4333 118.023 61.7C115.823 64.9667 112.623 67.5 108.423 69.3C104.223 71.1 99.256 72 93.5227 72ZM93.5227 29.5C96.9893 29.4333 99.856 28.5333 102.123 26.8C104.456 25.0667 105.623 22.8 105.623 20C105.623 17.0667 104.489 14.7333 102.223 13C99.956 11.2667 97.056 10.4 93.5227 10.4C89.9893 10.4 87.0893 11.2667 84.8227 13C82.556 14.7333 81.4227 17.0667 81.4227 20C81.4227 22.8667 82.556 25.1667 84.8227 26.9C87.0893 28.6333 89.9893 29.5 93.5227 29.5ZM93.5227 61.6C97.456 61.6 100.756 60.6 103.423 58.6C106.089 56.5333 107.423 53.8333 107.423 50.5C107.423 47.1667 106.089 44.5 103.423 42.5C100.756 40.4333 97.456 39.4 93.5227 39.4C89.5227 39.4 86.1893 40.4 83.5227 42.4C80.9227 44.4 79.6227 47.1 79.6227 50.5C79.6227 53.9 80.9227 56.6 83.5227 58.6C86.1893 60.6 89.5227 61.6 93.5227 61.6Z" fill="#FA8669" fill-opacity="0.5"/>
</svg>
